<svg width="46" height="45" viewBox="0 0 46 45" fill="none" xmlns="http://www.w3.org/2000/svg">
<rect x="0.293411" y="0.23819" width="44.7618" height="44.7618" rx="22.3809" fill="#FF2625"/>
<path d="M30.1355 19.0139C30.8285 18.4941 31.4522 17.8704 31.9373 17.1427C31.3136 17.4199 30.5859 17.6278 29.8582 17.6971C30.6206 17.2467 31.175 16.5537 31.4522 15.6874C30.7592 16.1032 29.9622 16.415 29.1652 16.5883C28.4722 15.8606 27.5366 15.4448 26.4971 15.4448C24.4874 15.4448 22.8588 17.0734 22.8588 19.0832C22.8588 19.3604 22.8934 19.6376 22.9627 19.9148C19.9481 19.7415 17.2453 18.2862 15.4435 16.1032C15.1316 16.623 14.9584 17.2467 14.9584 17.9397C14.9584 19.1871 15.5821 20.2959 16.587 20.9543C15.9979 20.9197 15.4089 20.781 14.9237 20.5038V20.5385C14.9237 22.3057 16.1712 23.761 17.8344 24.1075C17.5572 24.1768 17.2107 24.2461 16.8988 24.2461C16.6563 24.2461 16.4484 24.2115 16.2058 24.1768C16.6563 25.6322 18.0077 26.6717 19.6016 26.7063C18.3542 27.6766 16.7949 28.2656 15.097 28.2656C14.7851 28.2656 14.5079 28.231 14.2307 28.1963C15.8247 29.2358 17.7305 29.8249 19.8095 29.8249C26.4971 29.8249 30.1355 24.3154 30.1355 19.499C30.1355 19.3257 30.1355 19.1871 30.1355 19.0139Z" fill="white"/>
</svg>
