<svg width="46" height="45" viewBox="0 0 46 45" fill="none" xmlns="http://www.w3.org/2000/svg">
<rect x="0.586365" y="0.23819" width="44.7618" height="44.7618" rx="22.3809" fill="white"/>
<path d="M24.9487 21.1629H18.6423V23.4499H22.4192C22.2806 24.4201 21.2757 26.3259 18.6423 26.3259C16.39 26.3259 14.5188 24.4547 14.5188 22.0985C14.5188 19.7769 16.39 17.9057 18.6423 17.9057C19.959 17.9057 20.8253 18.4601 21.3104 18.9453L23.1122 17.2127C21.9341 16.1039 20.4441 15.4455 18.6423 15.4455C14.9693 15.4455 11.9893 18.4255 11.9893 22.0985C11.9893 25.8061 14.9693 28.7514 18.6423 28.7514C22.4885 28.7514 25.0527 26.0833 25.0527 22.2717C25.0527 21.8213 24.9834 21.5094 24.9487 21.1629ZM31.3591 21.3708V19.465H29.4187V21.3708H27.4782V23.3113H29.4187V25.2517H31.3591V23.3113H33.2996V21.3708H31.3591Z" fill="#FF2625"/>
</svg>
