<svg width="46" height="45" viewBox="0 0 46 45" fill="none" xmlns="http://www.w3.org/2000/svg">
<rect x="0.877792" y="0.23819" width="44.7618" height="44.7618" rx="22.3809" fill="white"/>
<path d="M18.2839 29.6673V19.3067H15.0614V29.6673H18.2839ZM16.6553 17.9206C17.6949 17.9206 18.5265 17.0544 18.5265 16.0148C18.5265 15.01 17.6949 14.1783 16.6553 14.1783C15.6505 14.1783 14.8188 15.01 14.8188 16.0148C14.8188 17.0544 15.6505 17.9206 16.6553 17.9206ZM30.3078 29.6673H30.3424V23.9845C30.3424 21.2125 29.7187 19.0641 26.4615 19.0641C24.9022 19.0641 23.8627 19.9304 23.4122 20.7273H23.3776V19.3067H20.2937V29.6673H23.5162V24.5389C23.5162 23.1876 23.7588 21.9055 25.422 21.9055C27.0852 21.9055 27.1199 23.4301 27.1199 24.6429V29.6673H30.3078Z" fill="#FF2625"/>
</svg>
