<svg width="26" height="26" viewBox="0 0 26 26" fill="none" xmlns="http://www.w3.org/2000/svg">
<path d="M0.833353 21.6597L1.2396 22.8785C1.26657 22.9594 1.3183 23.0297 1.38747 23.0796C1.45664 23.1294 1.53974 23.1563 1.625 23.1562H2.84375C2.92901 23.1563 3.01211 23.1294 3.08128 23.0796C3.15045 23.0297 3.20218 22.9594 3.22915 22.8785L3.54281 21.9375H4.17594L4.4896 22.8785C4.51657 22.9594 4.5683 23.0297 4.63747 23.0796C4.70664 23.1294 4.78974 23.1563 4.875 23.1562H6.09375C6.17901 23.1563 6.26211 23.1294 6.33128 23.0796C6.40045 23.0297 6.45218 22.9594 6.47915 22.8785L6.8854 21.6597L6.8852 21.6597C6.89909 21.6183 6.9062 21.5749 6.90625 21.5312V19.9062C6.90625 19.7985 6.86345 19.6952 6.78726 19.619C6.71107 19.5428 6.60774 19.5 6.5 19.5H5.28125V18.2812H6.90625C7.01399 18.2812 7.11732 18.2384 7.19351 18.1623C7.2697 18.0861 7.3125 17.9827 7.3125 17.875V15.8437C7.3125 15.736 7.2697 15.6327 7.19351 15.5565C7.11732 15.4803 7.01399 15.4375 6.90625 15.4375H5.6875V15.0312C5.6875 14.9235 5.6447 14.8202 5.56851 14.744L4.89213 14.0676L5.24264 10.5625H6.65517L8.9801 15.2124C9.28132 15.8175 9.76469 16.3129 10.3622 16.629L22.5594 23.1087C22.6534 23.1587 22.7632 23.1698 22.8653 23.1396C22.9673 23.1094 23.0535 23.0403 23.1051 22.9473L25.1364 19.291C25.163 19.2431 25.1797 19.1903 25.1853 19.1357C25.191 19.0812 25.1856 19.0261 25.1693 18.9737C25.1531 18.9213 25.1265 18.8727 25.091 18.8309C25.0555 18.7891 25.012 18.7549 24.9629 18.7304L24.1504 18.3241C24.0893 18.2936 24.0215 18.2789 23.9532 18.2815C23.8849 18.2842 23.8183 18.304 23.7597 18.3391L21.9664 19.4151L13.3426 12.7513L11.4862 7.55339C11.6796 7.23611 11.7817 6.87159 11.7812 6.5V4.46875C11.7812 4.16697 11.6972 3.87116 11.5386 3.61445C11.3799 3.35774 11.1529 3.15028 10.883 3.01532C10.6131 2.88035 10.3109 2.82322 10.0103 2.85031C9.70977 2.87741 9.42269 2.98766 9.18126 3.16872L7.88126 4.14373C7.83081 4.18158 7.78986 4.23065 7.76165 4.28706C7.73345 4.34348 7.71876 4.40568 7.71875 4.46875V6.5C7.71857 6.77969 7.7765 7.05637 7.88887 7.3125H5.28125C4.4196 7.31347 3.59351 7.6562 2.98423 8.26548C2.37495 8.87476 2.03222 9.70084 2.03125 10.5625V15.0312C2.03125 15.139 2.07405 15.2423 2.15024 15.3185L2.26921 15.4375H1.21875C1.11101 15.4375 1.00768 15.4803 0.931489 15.5565C0.855303 15.6327 0.812501 15.736 0.8125 15.8437V17.875C0.812501 17.9827 0.855303 18.0861 0.931489 18.1623C1.00768 18.2384 1.11101 18.2812 1.21875 18.2812H2.84375V19.5H1.21875C1.11101 19.5 1.00768 19.5428 0.931489 19.619C0.855303 19.6952 0.812501 19.7985 0.8125 19.9062V21.5312C0.81255 21.5749 0.819659 21.6183 0.833551 21.6597L0.833353 21.6597ZM2.55094 22.3437H1.91781L1.78239 21.9375H2.68636L2.55094 22.3437ZM5.16781 22.3437L5.03239 21.9375H5.93636L5.80094 22.3437H5.16781ZM6.5 9.75V8.125H8.53125V8.12388C8.86364 8.37413 9.26502 8.51596 9.68084 8.53008C10.0967 8.54421 10.5067 8.42995 10.8553 8.20283L12.1846 11.9248L8.96106 13.3575L7.56358 10.5625H9.34375V9.75H6.5ZM10.9688 6.5C10.9687 6.82323 10.8403 7.13323 10.6118 7.36179C10.3832 7.59035 10.0732 7.71875 9.75 7.71875C9.42677 7.71875 9.11677 7.59035 8.88821 7.36179C8.65965 7.13323 8.53125 6.82323 8.53125 6.5V6.09375H8.9375C9.04524 6.09375 9.14857 6.05096 9.22476 5.97478L9.91829 5.28125H10.9688V6.5ZM21.2603 21.4986L14.0235 17.654L15.4352 15.3952L21.4968 20.0791L21.2603 21.4986ZM23.9865 19.1506L24.2201 19.2674L22.5885 22.2042L22.017 21.9006L22.3074 20.1581L23.9865 19.1506ZM14.7891 14.8959L13.3041 17.2719L10.7434 15.9115C10.2953 15.6744 9.93274 15.3028 9.70681 14.849L9.3248 14.0849L12.4587 12.6921L12.6174 13.1366C12.6435 13.2098 12.6901 13.2739 12.7516 13.3214L14.7891 14.8959ZM9.66872 3.81876C9.78943 3.72822 9.93297 3.67309 10.0833 3.65953C10.2335 3.64598 10.3846 3.67454 10.5196 3.74202C10.6546 3.8095 10.7681 3.91323 10.8474 4.04159C10.9267 4.16995 10.9687 4.31786 10.9688 4.46875H9.75C9.64226 4.46875 9.53893 4.51154 9.46274 4.58772L8.76921 5.28125H8.53125V4.67188L9.66872 3.81876ZM2.84375 14.863V10.5625C2.84448 9.91626 3.10152 9.29669 3.55848 8.83973C4.01544 8.38277 4.63501 8.12573 5.28125 8.125H5.6875V9.75H4.875C4.77425 9.75 4.6771 9.78744 4.6024 9.85504C4.5277 9.92264 4.48079 10.0156 4.47076 10.1158L4.06451 14.1783C4.05852 14.2382 4.06591 14.2987 4.08615 14.3553C4.10638 14.412 4.13894 14.4635 4.18149 14.506L4.875 15.1995V15.4375H3.41829L2.84375 14.863ZM1.625 16.25H6.5V17.4687H1.625V16.25ZM3.65625 18.2812H4.46875V19.5H3.65625V18.2812ZM1.625 20.3125H6.09375V21.125H1.625V20.3125Z" fill="#FF2625" fill-opacity="0.5"/>
</svg>
