<svg width="159" height="181" viewBox="0 0 159 181" fill="none" xmlns="http://www.w3.org/2000/svg">
<circle cx="4.04237" cy="4.04237" r="4.04237" fill="#FF2625" fill-opacity="0.6"/>
<circle cx="25.6017" cy="4.04237" r="4.04237" fill="#FF2625" fill-opacity="0.6"/>
<circle cx="47.161" cy="4.04237" r="4.04237" fill="#FF2625" fill-opacity="0.6"/>
<circle cx="68.7204" cy="4.04237" r="4.04237" fill="#FF2625" fill-opacity="0.6"/>
<circle cx="90.2797" cy="4.04237" r="4.04237" fill="#FF2625" fill-opacity="0.6"/>
<circle cx="111.839" cy="4.04237" r="4.04237" fill="#FF2625" fill-opacity="0.6"/>
<circle cx="133.398" cy="4.04237" r="4.04237" fill="#FF2625" fill-opacity="0.6"/>
<circle cx="154.958" cy="4.04237" r="4.04237" fill="#FF2625" fill-opacity="0.6"/>
<circle cx="4.04237" cy="25.6024" r="4.04237" fill="#FF2625" fill-opacity="0.6"/>
<circle cx="25.6017" cy="25.6015" r="4.04237" fill="#FF2625" fill-opacity="0.6"/>
<circle cx="47.161" cy="25.6015" r="4.04237" fill="#FF2625" fill-opacity="0.6"/>
<circle cx="68.7204" cy="25.6015" r="4.04237" fill="#FF2625" fill-opacity="0.6"/>
<circle cx="90.2797" cy="25.6015" r="4.04237" fill="#FF2625" fill-opacity="0.6"/>
<circle cx="111.839" cy="25.6015" r="4.04237" fill="#FF2625" fill-opacity="0.6"/>
<circle cx="133.398" cy="25.6015" r="4.04237" fill="#FF2625" fill-opacity="0.6"/>
<circle cx="154.958" cy="25.6015" r="4.04237" fill="#FF2625" fill-opacity="0.6"/>
<circle cx="4.04237" cy="47.1613" r="4.04237" fill="#FF2625" fill-opacity="0.6"/>
<circle cx="25.6017" cy="47.1615" r="4.04237" fill="#FF2625" fill-opacity="0.6"/>
<circle cx="47.161" cy="47.1615" r="4.04237" fill="#FF2625" fill-opacity="0.6"/>
<circle cx="68.7204" cy="47.1615" r="4.04237" fill="#FF2625" fill-opacity="0.6"/>
<circle cx="90.2797" cy="47.1615" r="4.04237" fill="#FF2625" fill-opacity="0.6"/>
<circle cx="111.839" cy="47.1615" r="4.04237" fill="#FF2625" fill-opacity="0.6"/>
<circle cx="133.398" cy="47.1615" r="4.04237" fill="#FF2625" fill-opacity="0.6"/>
<circle cx="154.958" cy="47.1615" r="4.04237" fill="#FF2625" fill-opacity="0.6"/>
<circle cx="4.04237" cy="68.7208" r="4.04237" fill="#FF2625" fill-opacity="0.6"/>
<circle cx="25.6017" cy="68.7206" r="4.04237" fill="#FF2625" fill-opacity="0.6"/>
<circle cx="47.161" cy="68.7206" r="4.04237" fill="#FF2625" fill-opacity="0.6"/>
<circle cx="68.7204" cy="68.7206" r="4.04237" fill="#FF2625" fill-opacity="0.6"/>
<circle cx="90.2797" cy="68.7206" r="4.04237" fill="#FF2625" fill-opacity="0.6"/>
<circle cx="111.839" cy="68.7206" r="4.04237" fill="#FF2625" fill-opacity="0.6"/>
<circle cx="133.398" cy="68.7206" r="4.04237" fill="#FF2625" fill-opacity="0.6"/>
<circle cx="154.958" cy="68.7206" r="4.04237" fill="#FF2625" fill-opacity="0.6"/>
<circle cx="4.04237" cy="90.2798" r="4.04237" fill="#FF2625" fill-opacity="0.6"/>
<circle cx="25.6017" cy="90.2797" r="4.04237" fill="#FF2625" fill-opacity="0.6"/>
<circle cx="47.161" cy="90.2797" r="4.04237" fill="#FF2625" fill-opacity="0.6"/>
<circle cx="68.7204" cy="90.2797" r="4.04237" fill="#FF2625" fill-opacity="0.6"/>
<circle cx="90.2797" cy="90.2797" r="4.04237" fill="#FF2625" fill-opacity="0.6"/>
<circle cx="111.839" cy="90.2797" r="4.04237" fill="#FF2625" fill-opacity="0.6"/>
<circle cx="133.398" cy="90.2797" r="4.04237" fill="#FF2625" fill-opacity="0.6"/>
<circle cx="154.958" cy="90.2797" r="4.04237" fill="#FF2625" fill-opacity="0.6"/>
<circle cx="4.04237" cy="111.84" r="4.04237" fill="#FF2625" fill-opacity="0.6"/>
<circle cx="25.6017" cy="111.839" r="4.04237" fill="#FF2625" fill-opacity="0.6"/>
<circle cx="47.161" cy="111.839" r="4.04237" fill="#FF2625" fill-opacity="0.6"/>
<circle cx="68.7204" cy="111.839" r="4.04237" fill="#FF2625" fill-opacity="0.6"/>
<circle cx="90.2797" cy="111.839" r="4.04237" fill="#FF2625" fill-opacity="0.6"/>
<circle cx="111.839" cy="111.839" r="4.04237" fill="#FF2625" fill-opacity="0.6"/>
<circle cx="133.398" cy="111.839" r="4.04237" fill="#FF2625" fill-opacity="0.6"/>
<circle cx="154.958" cy="111.839" r="4.04237" fill="#FF2625" fill-opacity="0.6"/>
<circle cx="4.04237" cy="133.398" r="4.04237" fill="#FF2625" fill-opacity="0.6"/>
<circle cx="25.6017" cy="133.399" r="4.04237" fill="#FF2625" fill-opacity="0.6"/>
<circle cx="47.161" cy="133.399" r="4.04237" fill="#FF2625" fill-opacity="0.6"/>
<circle cx="68.7204" cy="133.399" r="4.04237" fill="#FF2625" fill-opacity="0.6"/>
<circle cx="90.2797" cy="133.399" r="4.04237" fill="#FF2625" fill-opacity="0.6"/>
<circle cx="111.839" cy="133.399" r="4.04237" fill="#FF2625" fill-opacity="0.6"/>
<circle cx="133.398" cy="133.399" r="4.04237" fill="#FF2625" fill-opacity="0.6"/>
<circle cx="154.958" cy="133.399" r="4.04237" fill="#FF2625" fill-opacity="0.6"/>
<circle cx="4.04237" cy="154.958" r="4.04237" fill="#FF2625" fill-opacity="0.6"/>
<circle cx="25.6017" cy="154.958" r="4.04237" fill="#FF2625" fill-opacity="0.6"/>
<circle cx="47.161" cy="154.958" r="4.04237" fill="#FF2625" fill-opacity="0.6"/>
<circle cx="68.7204" cy="154.958" r="4.04237" fill="#FF2625" fill-opacity="0.6"/>
<circle cx="90.2797" cy="154.958" r="4.04237" fill="#FF2625" fill-opacity="0.6"/>
<circle cx="111.839" cy="154.958" r="4.04237" fill="#FF2625" fill-opacity="0.6"/>
<circle cx="133.398" cy="154.958" r="4.04237" fill="#FF2625" fill-opacity="0.6"/>
<circle cx="154.958" cy="154.958" r="4.04237" fill="#FF2625" fill-opacity="0.6"/>
<circle cx="4.04237" cy="176.517" r="4.04237" fill="#FF2625" fill-opacity="0.6"/>
<circle cx="25.6017" cy="176.517" r="4.04237" fill="#FF2625" fill-opacity="0.6"/>
<circle cx="47.161" cy="176.517" r="4.04237" fill="#FF2625" fill-opacity="0.6"/>
<circle cx="68.7204" cy="176.517" r="4.04237" fill="#FF2625" fill-opacity="0.6"/>
<circle cx="90.2797" cy="176.517" r="4.04237" fill="#FF2625" fill-opacity="0.6"/>
<circle cx="111.839" cy="176.517" r="4.04237" fill="#FF2625" fill-opacity="0.6"/>
<circle cx="133.398" cy="176.517" r="4.04237" fill="#FF2625" fill-opacity="0.6"/>
<circle cx="154.958" cy="176.517" r="4.04237" fill="#FF2625" fill-opacity="0.6"/>
</svg>
